<svg width="86" height="87" viewBox="0 0 86 87" fill="none" xmlns="http://www.w3.org/2000/svg">
<path fill-rule="evenodd" clip-rule="evenodd" d="M30.0139 12.0857C30.5123 11.3293 31.3514 10.875 32.25 10.875H53.75C54.6486 10.875 55.4877 11.3293 55.9861 12.0857L60.5633 19.0312H69.875C72.0133 19.0312 74.064 19.8906 75.576 21.4202C77.0881 22.9498 77.9375 25.0243 77.9375 27.1875V65.25C77.9375 67.4132 77.0881 69.4877 75.576 71.0173C74.064 72.5469 72.0133 73.4062 69.875 73.4062H16.125C13.9867 73.4062 11.936 72.5469 10.424 71.0173C8.91194 69.4877 8.0625 67.4132 8.0625 65.25V27.1875C8.0625 25.0243 8.91194 22.9498 10.424 21.4202C11.936 19.8906 13.9867 19.0312 16.125 19.0312H25.4367L30.0139 12.0857ZM33.6883 16.3125L29.1111 23.2581C28.6127 24.0144 27.7736 24.4688 26.875 24.4688H16.125C15.4122 24.4688 14.7287 24.7552 14.2247 25.2651C13.7206 25.7749 13.4375 26.4664 13.4375 27.1875V65.25C13.4375 65.9711 13.7206 66.6626 14.2247 67.1724C14.7287 67.6823 15.4122 67.9688 16.125 67.9688H69.875C70.5878 67.9688 71.2713 67.6823 71.7753 67.1724C72.2794 66.6626 72.5625 65.9711 72.5625 65.25V27.1875C72.5625 26.4664 72.2794 25.7749 71.7753 25.2651C71.2713 24.7552 70.5878 24.4688 69.875 24.4688H59.125C58.2264 24.4688 57.3873 24.0144 56.8889 23.2581L52.3117 16.3125H33.6883Z" fill="#D7E9FA"/>
<path fill-rule="evenodd" clip-rule="evenodd" d="M43 35.3438C37.8051 35.3438 33.5938 39.604 33.5938 44.8594C33.5938 50.1147 37.8051 54.375 43 54.375C48.1949 54.375 52.4062 50.1147 52.4062 44.8594C52.4062 39.604 48.1949 35.3438 43 35.3438ZM28.2188 44.8594C28.2188 36.601 34.8365 29.9062 43 29.9062C51.1635 29.9062 57.7812 36.601 57.7812 44.8594C57.7812 53.1178 51.1635 59.8125 43 59.8125C34.8365 59.8125 28.2188 53.1178 28.2188 44.8594Z" fill="#D7E9FA"/>
</svg>
