<svg width="26" height="22" viewBox="0 0 26 22" fill="none" xmlns="http://www.w3.org/2000/svg">
<path d="M18.7369 11.1338L4.93327 17.3645C4.73679 17.453 4.51266 17.4612 4.31004 17.3873C4.10742 17.3135 3.94287 17.1636 3.85249 16.9706L0.446105 9.6762C0.356167 9.48303 0.347838 9.26267 0.422946 9.06346C0.498054 8.86426 0.650465 8.70248 0.846743 8.61362L14.6503 2.38285C14.8468 2.29442 15.0709 2.28623 15.2736 2.36008C15.4762 2.43392 15.6407 2.58376 15.7311 2.77674L19.1375 10.0712C19.2274 10.2644 19.2358 10.4847 19.1607 10.6839C19.0856 10.8831 18.9331 11.0449 18.7369 11.1338Z" fill="white"/>
<path d="M1.07608 9.10549C1.01232 9.13436 0.962802 9.18692 0.938402 9.25163C0.914003 9.31634 0.916709 9.38793 0.945927 9.45069L4.35232 16.7451C4.38168 16.8078 4.43513 16.8565 4.50096 16.8805C4.56678 16.9045 4.63959 16.9018 4.70342 16.8731L18.507 10.6423C18.5708 10.6135 18.6203 10.5609 18.6447 10.4962C18.6691 10.4315 18.6664 10.3599 18.6372 10.2971L15.2308 3.00268C15.2014 2.93999 15.148 2.89131 15.0821 2.86732C15.0163 2.84333 14.9435 2.84599 14.8797 2.87472L1.07608 9.10549Z" fill="#D7E9FA"/>
<path d="M18.7369 11.1338L4.93327 17.3645C4.73679 17.453 4.51266 17.4612 4.31004 17.3873C4.10742 17.3135 3.94287 17.1636 3.85249 16.9706L0.446105 9.6762C0.356167 9.48303 0.347838 9.26267 0.422946 9.06346C0.498054 8.86426 0.650465 8.70248 0.846743 8.61362L14.6503 2.38285C14.8468 2.29442 15.0709 2.28623 15.2736 2.36008C15.4762 2.43392 15.6407 2.58376 15.7311 2.77674L19.1375 10.0712C19.2274 10.2644 19.2358 10.4847 19.1607 10.6839C19.0856 10.8831 18.9331 11.0449 18.7369 11.1338ZM0.88206 8.68926C0.706169 8.76889 0.569588 8.91386 0.502282 9.09238C0.434975 9.27089 0.442441 9.46836 0.523039 9.64147L3.92943 16.9359C4.01042 17.1089 4.15788 17.2431 4.33945 17.3093C4.52102 17.3755 4.72188 17.3681 4.89795 17.2889L18.7015 11.0581C18.8774 10.9785 19.014 10.8335 19.0813 10.655C19.1486 10.4765 19.1412 10.279 19.0606 10.1059L15.6542 2.81146C15.5732 2.63853 15.4257 2.50425 15.2441 2.43808C15.0626 2.37191 14.8617 2.37925 14.6856 2.45849L0.88206 8.68926Z" fill="#4A4B4D" fill-opacity="0.7"/>
<path d="M15.2877 7.82355L4.32154 12.7735C4.23322 12.8132 4.13458 12.8252 4.03909 12.8077C3.9436 12.7903 3.85592 12.7443 3.788 12.676L0.57954 9.44115C0.52692 9.3881 0.488024 9.3234 0.46612 9.2525C0.444217 9.18159 0.439948 9.10655 0.453671 9.03369C0.467393 8.96082 0.498708 8.89226 0.544981 8.83377C0.591254 8.77528 0.651133 8.72856 0.719586 8.69754L14.7733 2.32812C14.8409 2.29752 14.9149 2.28309 14.9892 2.28601C15.0635 2.28894 15.1361 2.30913 15.2009 2.34494C15.2658 2.38075 15.3211 2.43116 15.3623 2.49203C15.4035 2.55291 15.4295 2.62252 15.4381 2.69516L15.44 2.69512L15.5619 7.39107C15.5643 7.48164 15.5396 7.57092 15.4909 7.64781C15.4421 7.7247 15.3714 7.78581 15.2877 7.82355ZM14.8092 2.40349L0.755013 8.77314C0.698868 8.79857 0.649755 8.83689 0.611802 8.88486C0.573849 8.93284 0.548166 8.98907 0.53691 9.04883C0.525654 9.1086 0.529156 9.17014 0.54712 9.22829C0.565084 9.28645 0.596986 9.33952 0.640144 9.38303L3.8486 12.6179C3.9043 12.6739 3.97623 12.7116 4.05455 12.726C4.13287 12.7403 4.21378 12.7305 4.28622 12.6979L15.2523 7.74791C15.3211 7.71695 15.379 7.66683 15.419 7.60376C15.459 7.5407 15.4792 7.46747 15.4773 7.39318L15.3564 2.73885C15.3548 2.67604 15.3373 2.61461 15.3056 2.56007C15.2739 2.50553 15.2289 2.45959 15.1747 2.42635C15.1204 2.39311 15.0587 2.37363 14.9949 2.36964C14.9311 2.36565 14.8673 2.37728 14.8092 2.40349Z" fill="#4A4B4D" fill-opacity="0.7"/>
<path d="M8.41084 14.5201L4.99425 16.0623C4.96946 16.0735 4.94266 16.0798 4.91539 16.0808C4.88812 16.0819 4.8609 16.0776 4.83531 16.0683C4.80971 16.059 4.78624 16.0448 4.76622 16.0266C4.7462 16.0083 4.73004 15.9864 4.71865 15.962C4.70726 15.9376 4.70088 15.9112 4.69985 15.8844C4.69883 15.8576 4.70319 15.8309 4.71269 15.8057C4.72219 15.7806 4.73664 15.7575 4.75521 15.7378C4.77378 15.7182 4.79611 15.7023 4.82093 15.6911L8.23752 14.1489C8.28757 14.1264 8.34467 14.1243 8.39628 14.1431C8.44789 14.162 8.48978 14.2002 8.51275 14.2494C8.53572 14.2986 8.53789 14.3547 8.51878 14.4055C8.49967 14.4562 8.46085 14.4974 8.41084 14.5201Z" fill="white"/>
<path d="M10.9101 9.75391C10.9687 9.87919 11.0017 10.0146 11.0071 10.1524C11.0124 10.2902 10.9902 10.4277 10.9415 10.5571C10.8928 10.6864 10.8186 10.805 10.7233 10.9062C10.6279 11.0073 10.5132 11.089 10.3857 11.1466C10.2583 11.2041 10.1205 11.2364 9.98031 11.2415C9.84013 11.2467 9.70029 11.2247 9.56879 11.1767C9.43728 11.1287 9.31669 11.0557 9.2139 10.9618C9.11111 10.868 9.02813 10.7551 8.96973 10.6297" fill="#4A4B4D" fill-opacity="0.7"/>
<path d="M18.6138 21.0554H3.42491C3.20882 21.0552 3.00165 20.9707 2.84885 20.8205C2.69605 20.6702 2.61011 20.4666 2.60986 20.2541V12.2276C2.61011 12.0151 2.69606 11.8115 2.84886 11.6612C3.00165 11.511 3.20882 11.4265 3.42491 11.4263H18.6138C18.8299 11.4265 19.0371 11.511 19.1899 11.6612C19.3427 11.8115 19.4286 12.0151 19.4289 12.2276V20.2541C19.4286 20.4666 19.3427 20.6702 19.1899 20.8205C19.0371 20.9707 18.8299 21.0552 18.6138 21.0554Z" fill="white"/>
<path d="M3.42494 11.9673C3.35474 11.9674 3.28743 11.9948 3.2378 12.0436C3.18816 12.0924 3.16024 12.1586 3.16016 12.2276V20.2541C3.16024 20.3231 3.18816 20.3893 3.2378 20.4381C3.28743 20.4869 3.35474 20.5144 3.42494 20.5144H18.6138C18.684 20.5144 18.7513 20.4869 18.801 20.4381C18.8506 20.3893 18.8785 20.3231 18.8786 20.2541V12.2276C18.8785 12.1586 18.8506 12.0924 18.801 12.0436C18.7513 11.9948 18.684 11.9674 18.6138 11.9673H3.42494Z" fill="url(#paint0_linear_714_37645)"/>
<path d="M18.6138 21.0554H3.42491C3.20882 21.0552 3.00165 20.9707 2.84885 20.8205C2.69605 20.6702 2.61011 20.4666 2.60986 20.2541V12.2276C2.61011 12.0151 2.69606 11.8115 2.84886 11.6612C3.00165 11.511 3.20882 11.4265 3.42491 11.4263H18.6138C18.8299 11.4265 19.0371 11.511 19.1899 11.6612C19.3427 11.8115 19.4286 12.0151 19.4289 12.2276V20.2541C19.4286 20.4666 19.3427 20.6702 19.1899 20.8205C19.0371 20.9707 18.8299 21.0552 18.6138 21.0554ZM3.42491 11.5095C3.23127 11.5097 3.04561 11.5854 2.90869 11.7201C2.77176 11.8547 2.69474 12.0372 2.69452 12.2276V20.2541C2.69474 20.4445 2.77176 20.627 2.90869 20.7616C3.04561 20.8963 3.23127 20.972 3.42491 20.9722H18.6138C18.8075 20.972 18.9931 20.8963 19.13 20.7616C19.267 20.627 19.344 20.4445 19.3442 20.2541V12.2276C19.344 12.0372 19.267 11.8547 19.13 11.7201C18.9931 11.5854 18.8075 11.5097 18.6138 11.5095H3.42491Z" fill="#010101"/>
<path d="M16.8837 16.6324H4.81703C4.71991 16.6323 4.6252 16.6027 4.54582 16.5477C4.46644 16.4926 4.40628 16.4149 4.37353 16.325L2.83055 12.069C2.80525 11.9992 2.79736 11.9244 2.80754 11.851C2.81773 11.7776 2.84569 11.7076 2.88909 11.647C2.93248 11.5864 2.99004 11.537 3.05691 11.5028C3.12379 11.4686 3.19804 11.4507 3.27341 11.4506L18.7485 11.4272C18.8229 11.4272 18.8962 11.4444 18.9625 11.4775C19.0288 11.5107 19.0862 11.5588 19.13 11.6179C19.1737 11.6771 19.2026 11.7456 19.2142 11.8178C19.2258 11.8901 19.2199 11.964 19.1969 12.0335L19.1986 12.0342L17.3165 16.3519C17.2802 16.4352 17.2199 16.5062 17.143 16.5561C17.066 16.606 16.9759 16.6325 16.8837 16.6324ZM18.7492 11.5105L3.27352 11.5339C3.2117 11.5339 3.15081 11.5486 3.09596 11.5767C3.0411 11.6047 2.9939 11.6453 2.95831 11.6949C2.92272 11.7446 2.89978 11.802 2.89142 11.8622C2.88307 11.9224 2.88954 11.9838 2.91029 12.041L4.45327 16.297C4.48012 16.3708 4.52947 16.4346 4.59458 16.4797C4.65968 16.5248 4.73737 16.5491 4.81703 16.5492H16.8837C16.9593 16.5493 17.0332 16.5275 17.0963 16.4866C17.1594 16.4457 17.2089 16.3874 17.2387 16.3191L19.1041 12.0397C19.1293 11.982 19.1395 11.919 19.1338 11.8564C19.1281 11.7938 19.1067 11.7336 19.0715 11.6812C19.0364 11.6287 18.9885 11.5857 18.9322 11.5559C18.876 11.5261 18.8131 11.5105 18.7492 11.5105Z" fill="#010101"/>
<path d="M7.79237 19.8972H4.0329C3.97781 19.8972 3.92498 19.8757 3.88603 19.8374C3.84708 19.7991 3.8252 19.7471 3.8252 19.693C3.8252 19.6388 3.84708 19.5869 3.88603 19.5486C3.92498 19.5103 3.97781 19.4888 4.0329 19.4888H7.79237C7.84746 19.4888 7.90028 19.5103 7.93924 19.5486C7.97819 19.5869 8.00007 19.6388 8.00007 19.693C8.00007 19.7471 7.97819 19.7991 7.93924 19.8374C7.90028 19.8757 7.84746 19.8972 7.79237 19.8972Z" fill="white"/>
<path d="M12.0867 16.5908C12.0867 16.8692 11.9742 17.1361 11.774 17.333C11.5738 17.5298 11.3023 17.6404 11.0192 17.6404C10.7361 17.6404 10.4645 17.5298 10.2643 17.333C10.0641 17.1361 9.95166 16.8692 9.95166 16.5908" fill="#010101"/>
<defs>
<linearGradient id="paint0_linear_714_37645" x1="3.16016" y1="16.1571" x2="18.8786" y2="16.1571" gradientUnits="userSpaceOnUse">
<stop offset="0.140625" stop-color="#0EB0D1"/>
<stop offset="0.791667" stop-color="#1FC995"/>
</linearGradient>
</defs>
</svg>
