<svg width="21" height="21" viewBox="0 0 21 21" fill="none" xmlns="http://www.w3.org/2000/svg">
<path d="M2.33643 19.2031H19.0031" stroke="#010101" stroke-width="1.5" stroke-linecap="round" stroke-linejoin="round"/>
<path d="M3.2583 19.2031V11.7031C3.2583 10.3198 4.49997 9.20312 6.0333 9.20312H15.2916C16.825 9.20312 18.0666 10.3198 18.0666 11.7031V19.2031" stroke="#010101" stroke-width="1.5" stroke-linecap="round" stroke-linejoin="round"/>
<path d="M5.30127 9.20182V6.84349C5.30127 5.84349 6.20127 5.03516 7.31794 5.03516H14.0263C15.1346 5.03516 16.0346 5.84349 16.0346 6.84349V9.20182" stroke="#010101" stroke-width="1.5" stroke-linecap="round" stroke-linejoin="round"/>
<path d="M3.60986 12.5195L3.9182 12.5279C4.53486 12.5362 5.02653 13.0362 5.02653 13.6529V13.9279C5.02653 14.5445 5.52653 15.0529 6.15153 15.0529C6.7682 15.0529 7.27653 14.5529 7.27653 13.9279V13.6695C7.27653 13.0529 7.77653 12.5445 8.40153 12.5445C9.0182 12.5445 9.52653 13.0445 9.52653 13.6695V13.9279C9.52653 14.5445 10.0265 15.0529 10.6515 15.0529C11.2682 15.0529 11.7765 14.5529 11.7765 13.9279V13.6695C11.7765 13.0529 12.2765 12.5445 12.9015 12.5445C13.5182 12.5445 14.0265 13.0445 14.0265 13.6695V13.9279C14.0265 14.5445 14.5265 15.0529 15.1515 15.0529C15.7682 15.0529 16.2765 14.5529 16.2765 13.9279V13.6695C16.2765 13.0529 16.7765 12.5445 17.4015 12.5445H17.7765" stroke="#010101" stroke-width="1.5" stroke-linecap="round" stroke-linejoin="round"/>
<path d="M7.33643 5.03581V3.36914" stroke="#010101" stroke-width="1.5" stroke-linecap="round" stroke-linejoin="round"/>
<path d="M14.0005 5.03581V3.36914" stroke="#010101" stroke-width="1.5" stroke-linecap="round" stroke-linejoin="round"/>
<path d="M10.6685 5.03516V2.53516" stroke="#010101" stroke-width="1.5" stroke-linecap="round" stroke-linejoin="round"/>
</svg>
