<svg width="21" height="21" viewBox="0 0 21 21" fill="none" xmlns="http://www.w3.org/2000/svg">
<g clip-path="url(#clip0_2261_75008)">
<path d="M6.90625 2.11426V4.61426" stroke="#010101" stroke-width="1.5" stroke-miterlimit="10" stroke-linecap="round" stroke-linejoin="round"/>
<path d="M13.5703 2.11426V4.61426" stroke="#010101" stroke-width="1.5" stroke-miterlimit="10" stroke-linecap="round" stroke-linejoin="round"/>
<path d="M3.15625 8.02246H17.3229" stroke="#010101" stroke-width="1.5" stroke-miterlimit="10" stroke-linecap="round" stroke-linejoin="round"/>
<path d="M17.7383 7.53092V14.6143C17.7383 17.1143 16.4883 18.7809 13.5716 18.7809H6.90495C3.98828 18.7809 2.73828 17.1143 2.73828 14.6143V7.53092C2.73828 5.03092 3.98828 3.36426 6.90495 3.36426H13.5716C16.4883 3.36426 17.7383 5.03092 17.7383 7.53092Z" stroke="#010101" stroke-width="1.5" stroke-miterlimit="10" stroke-linecap="round" stroke-linejoin="round"/>
<path d="M13.3183 11.8649H13.3258" stroke="#010101" stroke-width="2" stroke-linecap="round" stroke-linejoin="round"/>
<path d="M13.3183 14.3649H13.3258" stroke="#010101" stroke-width="2" stroke-linecap="round" stroke-linejoin="round"/>
<path d="M10.2363 11.8649H10.2438" stroke="#010101" stroke-width="2" stroke-linecap="round" stroke-linejoin="round"/>
<path d="M10.2363 14.3649H10.2438" stroke="#010101" stroke-width="2" stroke-linecap="round" stroke-linejoin="round"/>
<path d="M7.15037 11.8649H7.15786" stroke="#010101" stroke-width="2" stroke-linecap="round" stroke-linejoin="round"/>
<path d="M7.15037 14.3649H7.15786" stroke="#010101" stroke-width="2" stroke-linecap="round" stroke-linejoin="round"/>
</g>
<defs>
<clipPath id="clip0_2261_75008">
<rect width="20" height="20" fill="white" transform="translate(0.238281 0.448242)"/>
</clipPath>
</defs>
</svg>
