<svg width="198" height="158" viewBox="0 0 198 158" fill="none" xmlns="http://www.w3.org/2000/svg">
<path d="M193.011 91.9602L47.9376 156.85C45.8726 157.771 43.5169 157.857 41.3875 157.088C39.258 156.319 37.5286 154.758 36.5787 152.748L0.77809 76.7804C-0.167143 74.7686 -0.254675 72.4737 0.534697 70.3991C1.32407 68.3245 2.92589 66.6396 4.98874 65.7142L150.062 0.823959C152.127 -0.0969223 154.483 -0.182193 156.612 0.586842C158.742 1.35588 160.471 2.91642 161.421 4.92612L197.222 80.8939C198.167 82.9057 198.255 85.2007 197.465 87.2753C196.676 89.3499 195.074 91.0348 193.011 91.9602Z" fill="#F3F9FF"/>
<path d="M7.70213 71.2617C7.03101 71.5624 6.50987 72.1101 6.25306 72.7844C5.99624 73.4587 6.02473 74.2046 6.33225 74.8585L42.1853 150.864C42.4943 151.517 43.0569 152.025 43.7497 152.274C44.4425 152.524 45.2089 152.497 45.8807 152.197L191.167 87.2749C191.838 86.9741 192.359 86.4265 192.616 85.7522C192.872 85.0779 192.844 84.332 192.536 83.6781L156.683 7.67246C156.374 7.01925 155.812 6.51204 155.119 6.26208C154.426 6.01213 153.66 6.03985 152.988 6.33917L7.70213 71.2617Z" fill="#D7E9FA"/>
<path d="M193.011 91.9602L47.9376 156.85C45.8726 157.771 43.5169 157.857 41.3875 157.088C39.258 156.319 37.5286 154.758 36.5787 152.748L0.77809 76.7804C-0.167143 74.7686 -0.254675 72.4737 0.534697 70.3991C1.32407 68.3245 2.92589 66.6396 4.98874 65.7142L150.062 0.823959C152.127 -0.0969223 154.483 -0.182193 156.612 0.586842C158.742 1.35588 160.471 2.91642 161.421 4.92612L197.222 80.8939C198.167 82.9057 198.255 85.2007 197.465 87.2753C196.676 89.3499 195.074 91.0348 193.011 91.9602ZM5.35992 66.5019C3.51133 67.3312 2.07588 68.8411 1.3685 70.7002C0.661123 72.5593 0.739584 74.6159 1.58666 76.4187L37.3873 152.387C38.2385 154.188 39.7883 155.586 41.6966 156.275C43.6049 156.964 45.7158 156.888 47.5663 156.063L192.64 91.1724C194.489 90.3431 195.924 88.8333 196.631 86.9742C197.339 85.115 197.26 83.0585 196.413 81.2556L160.613 5.28779C159.761 3.48682 158.212 2.08836 156.303 1.3992C154.395 0.710045 152.284 0.786478 150.434 1.61173L5.35992 66.5019Z" fill="#7E7F80"/>
<path d="M156.905 57.5664L41.6153 108.962C40.6867 109.375 39.6497 109.499 38.6458 109.318C37.6419 109.136 36.7201 108.659 36.0061 107.95L2.27469 74.3621C1.72148 73.8112 1.31255 73.1395 1.08228 72.4033C0.852005 71.6671 0.807119 70.8879 0.951389 70.1314C1.09566 69.3748 1.42488 68.663 1.91136 68.0556C2.39784 67.4483 3.02736 66.9632 3.74703 66.6412L151.498 0.506948C152.208 0.189221 152.985 0.0394018 153.767 0.0697621C154.548 0.100123 155.311 0.3098 155.993 0.681617C156.675 1.05343 157.256 1.57681 157.69 2.20887C158.123 2.84094 158.396 3.56371 158.486 4.31798L158.506 4.31749L159.788 53.0759C159.813 54.0163 159.554 54.9433 159.041 55.7417C158.529 56.54 157.786 57.1745 156.905 57.5664ZM151.875 1.2895L4.11947 67.426C3.52921 67.6902 3.01287 68.088 2.61387 68.5861C2.21486 69.0843 1.94484 69.6681 1.82651 70.2886C1.70817 70.9091 1.74498 71.5482 1.93385 72.152C2.12271 72.7558 2.45811 73.3068 2.91184 73.7586L36.6432 107.347C37.2288 107.928 37.9849 108.32 38.8083 108.468C39.6318 108.617 40.4823 108.515 41.244 108.177L156.534 56.781C157.256 56.4596 157.865 55.9392 158.286 55.2844C158.706 54.6296 158.919 53.8692 158.898 53.0979L157.628 4.77155C157.611 4.11942 157.427 3.48161 157.094 2.91532C156.76 2.34903 156.287 1.87196 155.717 1.52686C155.147 1.18176 154.497 0.979428 153.827 0.938003C153.156 0.896578 152.486 1.01735 151.875 1.2895Z" fill="#7E7F80"/>
<path d="M83.8452 127.301L48.2283 143.636C47.9698 143.755 47.6904 143.822 47.4061 143.833C47.1218 143.844 46.8382 143.799 46.5713 143.7C46.3045 143.601 46.0598 143.451 45.8511 143.258C45.6424 143.065 45.4739 142.832 45.3552 142.574C45.2365 142.316 45.1699 142.037 45.1592 141.753C45.1486 141.469 45.1941 141.185 45.2931 140.919C45.3921 140.652 45.5427 140.408 45.7363 140.2C45.9299 139.992 46.1627 139.823 46.4214 139.705L82.0384 123.37C82.5601 123.131 83.1554 123.109 83.6934 123.309C84.2314 123.508 84.6682 123.913 84.9076 124.434C85.1471 124.955 85.1697 125.549 84.9705 126.087C84.7712 126.625 84.3665 127.061 83.8452 127.301Z" fill="#F3F9FF"/>
<path d="M110.985 77.5459C111.61 78.8502 111.961 80.2601 112.018 81.6949C112.075 83.1297 111.838 84.5613 111.319 85.9079C110.801 87.2544 110.011 88.4896 108.995 89.5427C107.979 90.5957 106.758 91.4462 105.4 92.0453C104.042 92.6444 102.574 92.9804 101.081 93.0342C99.5877 93.088 98.0981 92.8585 96.6973 92.3588C95.2964 91.8591 94.0118 91.099 92.9169 90.1219C91.8219 89.1448 90.9381 87.97 90.3159 86.6645" fill="#7E7F80"/>
</svg>
