<svg width="316" height="285" viewBox="0 0 316 285" fill="none" xmlns="http://www.w3.org/2000/svg">
<path d="M371.71 280.741L18.93 225.239C13.912 224.443 9.41167 221.741 6.41644 217.724C3.42121 213.707 2.17567 208.704 2.95308 203.812L32.5368 19.0207C33.3255 14.1305 36.0725 9.75539 40.1751 6.85518C44.2777 3.95497 49.4008 2.7665 54.4206 3.55054L407.201 59.0525C412.219 59.8477 416.719 62.5502 419.714 66.5671C422.709 70.584 423.955 75.5872 423.178 80.4792L393.594 265.27C392.805 270.161 390.058 274.536 385.956 277.436C381.853 280.336 376.73 281.525 371.71 280.741Z" fill="#F3F9FF"/>
<path d="M52.389 15.7461C50.7579 15.4913 49.093 15.8785 47.7596 16.8226C46.4263 17.7668 45.5333 19.1909 45.2766 20.7824L15.6393 205.908C15.3863 207.5 15.7907 209.128 16.7636 210.435C17.7366 211.743 19.1988 212.622 20.8293 212.88L373.691 268.395C375.322 268.65 376.987 268.262 378.321 267.318C379.654 266.374 380.547 264.95 380.804 263.359L410.441 78.2328C410.694 76.6406 410.29 75.0125 409.317 73.7055C408.344 72.3984 406.881 71.5193 405.251 71.2609L52.389 15.7461Z" fill="url(#paint0_linear_824_44689)"/>
<path d="M371.71 280.741L18.93 225.239C13.912 224.443 9.41167 221.741 6.41644 217.724C3.42121 213.707 2.17567 208.704 2.95308 203.812L32.5368 19.0207C33.3255 14.1305 36.0725 9.75539 40.1751 6.85518C44.2777 3.95497 49.4008 2.7665 54.4206 3.55054L407.201 59.0525C412.219 59.8477 416.719 62.5502 419.714 66.5671C422.709 70.584 423.955 75.5872 423.178 80.4792L393.594 265.27C392.805 270.161 390.058 274.536 385.956 277.436C381.853 280.336 376.73 281.525 371.71 280.741ZM54.1139 5.46672C49.6155 4.76408 45.0244 5.82907 41.3479 8.42805C37.6715 11.027 35.2098 14.9478 34.503 19.3301L4.91932 204.121C4.2227 208.505 5.33889 212.989 8.023 216.588C10.7071 220.188 14.74 222.61 19.2368 223.322L372.017 278.824C376.515 279.527 381.106 278.462 384.783 275.863C388.459 273.264 390.921 269.343 391.628 264.961L421.211 80.1699C421.908 75.786 420.792 71.3024 418.108 67.7027C415.424 64.103 411.391 61.6813 406.894 60.9687L54.1139 5.46672Z" fill="#010101"/>
<path d="M347.741 172.718L67.3743 128.608C65.1181 128.25 63.0267 127.222 61.3854 125.663C59.7442 124.105 58.6331 122.093 58.2039 119.901L38.0563 16.1725C37.7259 14.4713 37.8184 12.7196 38.3259 11.0646C38.8335 9.40967 39.7413 7.89985 40.9732 6.66207C42.205 5.4243 43.7247 4.49474 45.4047 3.95154C47.0847 3.40834 48.8758 3.2674 50.6274 3.5405L410.275 59.5703C412.003 59.84 413.644 60.5053 415.062 61.5116C416.481 62.5179 417.636 63.8366 418.434 65.3598C419.233 66.8829 419.651 68.5671 419.654 70.2744C419.658 71.9816 419.247 73.6634 418.456 75.182L418.493 75.2052L358.832 167.834C357.682 169.622 356.018 171.037 354.047 171.906C352.075 172.774 349.882 173.056 347.741 172.718ZM409.983 61.4909L50.323 5.45908C48.8863 5.23507 47.4173 5.3507 46.0394 5.79621C44.6615 6.24172 43.415 7.00411 42.4047 8.0193C41.3944 9.0345 40.6498 10.2728 40.2335 11.6302C39.8172 12.9875 39.7413 14.4242 40.0123 15.8196L60.1598 119.548C60.5117 121.346 61.4229 122.996 62.7691 124.274C64.1153 125.553 65.8308 126.396 67.6814 126.69L348.048 170.799C349.805 171.077 351.603 170.845 353.22 170.133C354.837 169.421 356.202 168.26 357.145 166.794L416.278 74.9857C417.076 73.7467 417.545 72.3323 417.644 70.8693C417.743 69.4063 417.468 67.9403 416.844 66.6029C416.22 65.2654 415.267 64.0983 414.069 63.2062C412.872 62.314 411.468 61.7246 409.983 61.4909Z" fill="#010101"/>
<path d="M124.009 214.554L36.7037 200.818C35.4244 200.617 34.2745 199.944 33.5068 198.946C32.7392 197.949 32.4167 196.709 32.6103 195.499C32.8039 194.29 33.4978 193.21 34.5392 192.497C35.5807 191.784 36.8845 191.497 38.1637 191.698L125.469 205.434C126.749 205.635 127.899 206.309 128.666 207.306C129.434 208.304 129.756 209.543 129.563 210.753C129.369 211.962 128.675 213.042 127.634 213.755C126.592 214.468 125.289 214.755 124.009 214.554Z" fill="#F3F9FF"/>
<path d="M236.218 153.982C235.205 160.308 231.624 165.965 226.263 169.707C220.902 173.449 214.2 174.971 207.63 173.938C201.061 172.904 195.164 169.4 191.235 164.196C187.306 158.992 185.667 152.515 186.68 146.188" fill="#010101"/>
<defs>
<linearGradient id="paint0_linear_824_44689" x1="30.7673" y1="111.413" x2="395.774" y2="169.848" gradientUnits="userSpaceOnUse">
<stop offset="0.140625" stop-color="#0EB0D1"/>
<stop offset="0.791667" stop-color="#1FC995"/>
</linearGradient>
</defs>
</svg>
