<svg width="97" height="94" viewBox="0 0 97 94" fill="none" xmlns="http://www.w3.org/2000/svg">
<path d="M73.9328 71.9699L15.4944 58.2664C14.6632 58.0705 13.9398 57.5582 13.4827 56.8419C13.0256 56.1256 12.8722 55.2637 13.0563 54.4454L20.0447 23.5372C20.2307 22.7194 20.7387 22.0126 21.4574 21.572C22.176 21.1314 23.0467 20.9929 23.8783 21.1869L82.3167 34.8903C83.1478 35.0862 83.8713 35.5985 84.3284 36.3149C84.7855 37.0312 84.9388 37.8931 84.7548 38.7114L77.7664 69.6195C77.5804 70.4374 77.0724 71.1442 76.3537 71.5848C75.6351 72.0254 74.7644 72.1639 73.9328 71.9699Z" fill="#F3F9FF"/>
<path d="M23.0781 23.2023C22.8091 23.1393 22.5276 23.1838 22.2953 23.3259C22.063 23.4681 21.899 23.6964 21.8391 23.9607L14.9146 54.706C14.8554 54.9705 14.9053 55.2491 15.0533 55.4808C15.2014 55.7125 15.4356 55.8783 15.7045 55.9419L73.8954 69.6371C74.1644 69.7 74.4459 69.6556 74.6782 69.5134C74.9104 69.3712 75.0745 69.1429 75.1343 68.8786L82.0588 38.1333C82.1181 37.8689 82.0682 37.5902 81.9201 37.3585C81.772 37.1268 81.5379 36.961 81.269 36.8974L23.0781 23.2023Z" fill="#D7E9FA"/>
<path d="M73.9328 71.9699L15.4944 58.2664C14.6632 58.0705 13.9398 57.5582 13.4827 56.8419C13.0256 56.1256 12.8722 55.2637 13.0563 54.4454L20.0447 23.5372C20.2307 22.7194 20.7387 22.0126 21.4574 21.572C22.176 21.1314 23.0467 20.9929 23.8783 21.1869L82.3167 34.8903C83.1478 35.0862 83.8713 35.5985 84.3284 36.3149C84.7855 37.0312 84.9388 37.8931 84.7548 38.7114L77.7664 69.6195C77.5804 70.4374 77.0724 71.1442 76.3537 71.5848C75.6351 72.0254 74.7644 72.1639 73.9328 71.9699ZM23.8058 21.5074C23.0606 21.3335 22.2804 21.4576 21.6363 21.8525C20.9923 22.2473 20.5371 22.8807 20.3704 23.6136L13.382 54.5218C13.2171 55.2551 13.3545 56.0274 13.7641 56.6694C14.1737 57.3113 14.822 57.7704 15.5669 57.9459L74.0053 71.6494C74.7505 71.8233 75.5307 71.6992 76.1748 71.3043C76.8188 70.9094 77.274 70.2761 77.4406 69.5432L84.4291 38.635C84.594 37.9017 84.4566 37.1293 84.047 36.4874C83.6374 35.8455 82.989 35.3864 82.2442 35.2109L23.8058 21.5074Z" fill="#474747"/>
<path d="M71.0127 53.2597L24.577 42.2319C24.2033 42.1426 23.8642 41.9424 23.6058 41.6587C23.3474 41.375 23.1824 41.0216 23.1334 40.6466L20.8379 22.9036C20.8002 22.6126 20.8338 22.3186 20.9359 22.0461C21.0379 21.7736 21.2054 21.5308 21.4242 21.3379C21.6431 21.1451 21.9069 21.0078 22.1935 20.9378C22.4801 20.8678 22.7811 20.867 23.0713 20.9354L82.6436 34.9884C82.9299 35.056 83.1974 35.1892 83.4242 35.377C83.651 35.5648 83.8306 35.8019 83.9483 36.0689C84.0661 36.3359 84.1185 36.6251 84.1015 36.9129C84.0844 37.2008 83.9983 37.479 83.8502 37.7248L83.8562 37.7292L72.9182 52.5786C72.7075 52.8652 72.4145 53.0825 72.0757 53.2036C71.737 53.3247 71.3673 53.3442 71.0127 53.2597ZM82.5749 35.3084L23.0005 21.2549C22.7625 21.1988 22.5156 21.1994 22.2805 21.2569C22.0455 21.3143 21.8291 21.4269 21.6496 21.585C21.4701 21.7432 21.3327 21.9424 21.2491 22.1659C21.1654 22.3893 21.1378 22.6305 21.1687 22.8692L23.4641 40.6122C23.5044 40.9197 23.6397 41.2096 23.8516 41.4424C24.0635 41.6751 24.3417 41.8393 24.6482 41.9125L71.084 52.9403C71.3748 53.0096 71.678 52.9936 71.9558 52.8942C72.2337 52.7949 72.474 52.6167 72.6469 52.3816L83.4879 37.6638C83.6342 37.4652 83.7274 37.2328 83.759 36.9875C83.7907 36.7421 83.7599 36.4915 83.6694 36.2581C83.5789 36.0246 83.4316 35.8157 83.2405 35.6499C83.0495 35.4842 82.8208 35.3669 82.5749 35.3084Z" fill="#474747"/>
<path d="M33.1408 57.9567L18.5512 54.4251C18.4453 54.3995 18.3448 54.3539 18.2555 54.2908C18.1662 54.2276 18.0899 54.1482 18.0309 54.0571C17.9719 53.966 17.9314 53.8649 17.9116 53.7597C17.8919 53.6545 17.8933 53.5472 17.9159 53.4439C17.9384 53.3407 17.9816 53.2435 18.0429 53.1579C18.1043 53.0723 18.1827 53 18.2735 52.9452C18.3644 52.8903 18.466 52.854 18.5725 52.8382C18.679 52.8225 18.7883 52.8276 18.8942 52.8534L33.4838 56.385C33.6974 56.4369 33.8841 56.5694 34.0029 56.7533C34.1218 56.9372 34.163 57.1575 34.1176 57.3658C34.0721 57.5741 33.9437 57.7533 33.7606 57.8641C33.5774 57.9749 33.3545 58.0082 33.1408 57.9567Z" fill="#F3F9FF"/>
<path d="M51.942 48.3426C51.8009 48.8837 51.5573 49.3991 51.2252 49.8591C50.8931 50.3192 50.4789 50.7149 50.0064 51.0238C49.5339 51.3326 49.0123 51.5485 48.4715 51.6591C47.9306 51.7697 47.3811 51.7728 46.8543 51.6682C46.3275 51.5637 45.8338 51.3535 45.4014 51.0498C44.969 50.746 44.6063 50.3546 44.3342 49.898C44.062 49.4413 43.8858 48.9284 43.8154 48.3884C43.745 47.8485 43.7819 47.2922 43.924 46.7512" fill="#474747"/>
</svg>
