<svg width="96" height="94" viewBox="0 0 96 94" fill="none" xmlns="http://www.w3.org/2000/svg">
<path d="M72.9343 71.9699L14.4959 58.2664C13.6647 58.0705 12.9412 57.5582 12.4841 56.8419C12.027 56.1256 11.8737 55.2637 12.0577 54.4454L19.0462 23.5372C19.2321 22.7194 19.7401 22.0126 20.4588 21.572C21.1775 21.1314 22.0481 20.9929 22.8797 21.1869L81.3181 34.8903C82.1493 35.0862 82.8728 35.5985 83.3299 36.3149C83.7869 37.0312 83.9403 37.8931 83.7563 38.7114L76.7678 69.6195C76.5819 70.4374 76.0739 71.1442 75.3552 71.5848C74.6365 72.0254 73.7659 72.1639 72.9343 71.9699Z" fill="#F3F9FF"/>
<path d="M22.0796 23.2028C21.8106 23.1398 21.529 23.1842 21.2968 23.3264C21.0645 23.4686 20.9004 23.6969 20.8406 23.9612L13.9161 54.7065C13.8569 54.971 13.9067 55.2496 14.0548 55.4813C14.2029 55.713 14.437 55.8788 14.7059 55.9424L72.8968 69.6375C73.1658 69.7005 73.4474 69.6561 73.6796 69.5139C73.9119 69.3717 74.076 69.1434 74.1358 68.8791L81.0603 38.1338C81.1195 37.8694 81.0696 37.5907 80.9216 37.359C80.7735 37.1273 80.5393 36.9615 80.2705 36.8979L22.0796 23.2028Z" fill="#D7E9FA"/>
<path d="M72.9343 71.9699L14.4959 58.2664C13.6647 58.0705 12.9412 57.5582 12.4841 56.8419C12.027 56.1256 11.8737 55.2637 12.0577 54.4454L19.0462 23.5372C19.2321 22.7194 19.7401 22.0126 20.4588 21.572C21.1775 21.1314 22.0481 20.9929 22.8797 21.1869L81.3181 34.8903C82.1493 35.0862 82.8728 35.5985 83.3299 36.3149C83.7869 37.0312 83.9403 37.8931 83.7563 38.7114L76.7678 69.6195C76.5819 70.4374 76.0739 71.1442 75.3552 71.5848C74.6365 72.0254 73.7659 72.1639 72.9343 71.9699ZM22.8073 21.5074C22.062 21.3335 21.2818 21.4576 20.6378 21.8525C19.9938 22.2473 19.5385 22.8807 19.3719 23.6136L12.3834 54.5218C12.2185 55.2551 12.356 56.0274 12.7656 56.6694C13.1752 57.3113 13.8235 57.7704 14.5684 57.9459L73.0068 71.6494C73.752 71.8233 74.5322 71.6992 75.1762 71.3043C75.8202 70.9094 76.2755 70.2761 76.4421 69.5432L83.4306 38.635C83.5955 37.9017 83.4581 37.1293 83.0485 36.4874C82.6389 35.8455 81.9905 35.3864 81.2457 35.2109L22.8073 21.5074Z" fill="#7E7F80"/>
<path d="M70.0142 53.2597L23.5784 42.2319C23.2048 42.1426 22.8656 41.9424 22.6073 41.6587C22.3489 41.375 22.1839 41.0216 22.1348 40.6466L19.8393 22.9036C19.8017 22.6126 19.8353 22.3186 19.9373 22.0461C20.0394 21.7736 20.2068 21.5308 20.4257 21.3379C20.6445 21.1451 20.9084 21.0078 21.195 20.9378C21.4816 20.8678 21.7826 20.867 22.0727 20.9354L81.645 34.9884C81.9314 35.056 82.1989 35.1892 82.4257 35.377C82.6525 35.5648 82.8321 35.8019 82.9498 36.0689C83.0675 36.3359 83.12 36.6251 83.1029 36.9129C83.0859 37.2008 82.9998 37.479 82.8516 37.7248L82.8577 37.7292L71.9197 52.5786C71.7089 52.8652 71.416 53.0825 71.0772 53.2036C70.7384 53.3247 70.3688 53.3442 70.0142 53.2597ZM81.5763 35.3084L22.0019 21.2549C21.764 21.1988 21.5171 21.1994 21.282 21.2569C21.0469 21.3143 20.8306 21.4269 20.6511 21.585C20.4716 21.7432 20.3342 21.9424 20.2505 22.1659C20.1668 22.3893 20.1393 22.6305 20.1701 22.8692L22.4656 40.6122C22.5059 40.9197 22.6412 41.2096 22.8531 41.4424C23.065 41.6751 23.3432 41.8393 23.6497 41.9125L70.0854 52.9403C70.3763 53.0096 70.6795 52.9936 70.9573 52.8942C71.2352 52.7949 71.4755 52.6167 71.6483 52.3816L82.4894 37.6638C82.6357 37.4652 82.7288 37.2328 82.7605 36.9875C82.7922 36.7421 82.7614 36.4915 82.6709 36.2581C82.5804 36.0246 82.433 35.8157 82.242 35.6499C82.051 35.4842 81.8223 35.3669 81.5763 35.3084Z" fill="#7E7F80"/>
<path d="M32.1423 57.9582L17.5527 54.4265C17.4467 54.401 17.3462 54.3554 17.257 54.2922C17.1677 54.2291 17.0914 54.1497 17.0324 54.0585C16.9734 53.9674 16.9328 53.8664 16.9131 53.7612C16.8933 53.656 16.8948 53.5487 16.9173 53.4454C16.9399 53.3421 16.983 53.2449 17.0444 53.1594C17.1058 53.0738 17.1841 53.0015 17.275 52.9467C17.3659 52.8918 17.4674 52.8555 17.5739 52.8397C17.6804 52.824 17.7897 52.8291 17.8956 52.8548L32.4852 56.3865C32.6988 56.4384 32.8856 56.5709 33.0044 56.7548C33.1233 56.9387 33.1645 57.159 33.119 57.3672C33.0736 57.5755 32.9452 57.7548 32.762 57.8656C32.5789 57.9764 32.356 58.0097 32.1423 57.9582Z" fill="#F3F9FF"/>
<path d="M50.9439 48.3441C50.8028 48.8852 50.5592 49.4005 50.2271 49.8606C49.895 50.3206 49.4809 50.7164 49.0084 51.0253C48.5359 51.3341 48.0143 51.55 47.4734 51.6606C46.9326 51.7711 46.383 51.7742 45.8562 51.6697C45.3294 51.5651 44.8357 51.355 44.4033 51.0512C43.9709 50.7475 43.6083 50.3561 43.3361 49.8994C43.064 49.4428 42.8877 48.9299 42.8173 48.3899C42.747 47.85 42.7839 47.2936 42.926 46.7527" fill="#7E7F80"/>
</svg>
