<svg width="198" height="158" viewBox="0 0 198 158" fill="none" xmlns="http://www.w3.org/2000/svg">
<path d="M193.011 91.8943L47.9376 156.784C45.8726 157.705 43.5169 157.791 41.3875 157.022C39.258 156.253 37.5286 154.692 36.5787 152.682L0.77809 76.7145C-0.167143 74.7027 -0.254675 72.4078 0.534697 70.3332C1.32407 68.2586 2.92589 66.5737 4.98874 65.6482L150.062 0.758041C152.127 -0.16284 154.483 -0.248111 156.612 0.520924C158.742 1.28996 160.471 2.8505 161.421 4.8602L197.222 80.828C198.167 82.8398 198.255 85.1348 197.465 87.2094C196.676 89.284 195.074 90.9688 193.011 91.8943Z" fill="#F3F9FF"/>
<path d="M7.70116 71.1962C7.03003 71.497 6.50889 72.0446 6.25208 72.7189C5.99527 73.3932 6.02375 74.1391 6.33128 74.793L42.1843 150.799C42.4933 151.452 43.056 151.959 43.7488 152.209C44.4416 152.459 45.2079 152.431 45.8798 152.132L191.166 87.2095C191.837 86.9087 192.358 86.3611 192.615 85.6868C192.872 85.0125 192.843 84.2666 192.536 83.6127L156.683 7.60703C156.373 6.95383 155.811 6.44661 155.118 6.19665C154.425 5.9467 153.659 5.97442 152.987 6.27374L7.70116 71.1962Z" fill="#D7E9FA"/>
<path d="M193.011 91.8943L47.9376 156.784C45.8726 157.705 43.5169 157.791 41.3875 157.022C39.258 156.253 37.5286 154.692 36.5787 152.682L0.77809 76.7145C-0.167143 74.7027 -0.254675 72.4078 0.534697 70.3332C1.32407 68.2586 2.92589 66.5737 4.98874 65.6482L150.062 0.758041C152.127 -0.16284 154.483 -0.248111 156.612 0.520924C158.742 1.28996 160.471 2.8505 161.421 4.8602L197.222 80.828C198.167 82.8398 198.255 85.1348 197.465 87.2094C196.676 89.284 195.074 90.9688 193.011 91.8943ZM5.35992 66.436C3.51133 67.2653 2.07588 68.7752 1.3685 70.6343C0.661123 72.4934 0.739584 74.55 1.58666 76.3528L37.3873 152.321C38.2385 154.122 39.7883 155.52 41.6966 156.209C43.6049 156.898 45.7158 156.822 47.5663 155.997L192.64 91.1065C194.489 90.2772 195.924 88.7674 196.631 86.9082C197.339 85.0491 197.26 82.9925 196.413 81.1897L160.613 5.22187C159.761 3.4209 158.212 2.02244 156.303 1.33328C154.395 0.644127 152.284 0.72056 150.434 1.54581L5.35992 66.436Z" fill="#474747"/>
<path d="M156.903 57.5005L41.6138 108.896C40.6853 109.309 39.6483 109.433 38.6444 109.252C37.6405 109.071 36.7186 108.593 36.0046 107.884L2.27323 74.2962C1.72002 73.7453 1.31109 73.0736 1.08081 72.3374C0.85054 71.6012 0.805654 70.822 0.949924 70.0655C1.09419 69.3089 1.42341 68.597 1.90989 67.9897C2.39637 67.3823 3.0259 66.8973 3.74556 66.5752L151.496 0.44103C152.206 0.123303 152.984 -0.0265162 153.765 0.00384417C154.547 0.0342045 155.31 0.243882 155.992 0.615699C156.673 0.987516 157.255 1.51089 157.688 2.14296C158.122 2.77502 158.395 3.49779 158.485 4.25206L158.505 4.25157L159.787 53.01C159.812 53.9504 159.552 54.8774 159.04 55.6758C158.527 56.4741 157.784 57.1086 156.903 57.5005ZM151.874 1.22359L4.11801 67.3601C3.52775 67.6242 3.01141 68.0221 2.6124 68.5202C2.21339 69.0183 1.94338 69.6022 1.82504 70.2227C1.70671 70.8432 1.74352 71.4822 1.93238 72.0861C2.12124 72.6899 2.45664 73.2409 2.91037 73.6927L36.6417 107.281C37.2273 107.862 37.9834 108.254 38.8069 108.403C39.6303 108.551 40.4809 108.449 41.2425 108.111L156.532 56.7151C157.255 56.3937 157.864 55.8733 158.284 55.2184C158.705 54.5636 158.918 53.8033 158.897 53.032L157.626 4.70563C157.609 4.0535 157.426 3.41569 157.092 2.84941C156.759 2.28312 156.286 1.80604 155.715 1.46094C155.145 1.11585 154.496 0.91351 153.825 0.872085C153.155 0.83066 152.484 0.951436 151.874 1.22359Z" fill="#474747"/>
<path d="M83.8437 127.235L48.2268 143.571C47.9683 143.689 47.689 143.756 47.4047 143.767C47.1204 143.778 46.8367 143.733 46.5699 143.634C46.303 143.536 46.0583 143.385 45.8496 143.192C45.6409 142.999 45.4724 142.767 45.3537 142.508C45.235 142.25 45.1684 141.971 45.1578 141.687C45.1471 141.403 45.1926 141.119 45.2916 140.853C45.3906 140.587 45.5413 140.342 45.7349 140.134C45.9285 139.926 46.1613 139.758 46.4199 139.639L82.0369 123.304C82.5587 123.065 83.154 123.043 83.692 123.243C84.23 123.442 84.6667 123.847 84.9061 124.368C85.1456 124.889 85.1682 125.484 84.969 126.021C84.7698 126.559 84.3651 126.995 83.8437 127.235Z" fill="#F3F9FF"/>
<path d="M110.985 77.4805C111.61 78.7848 111.961 80.1946 112.019 81.6294C112.076 83.0642 111.839 84.4959 111.32 85.8424C110.801 87.189 110.011 88.4241 108.996 89.4772C107.98 90.5303 106.758 91.3807 105.4 91.9798C104.042 92.5789 102.575 92.915 101.081 92.9688C99.5882 93.0226 98.0986 92.7931 96.6977 92.2933C95.2969 91.7936 94.0123 91.0335 92.9174 90.0565C91.8224 89.0794 90.9386 87.9046 90.3164 86.5991" fill="#474747"/>
</svg>
