<svg width="21" height="21" viewBox="0 0 21 21" fill="none" xmlns="http://www.w3.org/2000/svg">
<path d="M15.3899 9.98679V13.3201C15.3899 13.5368 15.3816 13.7451 15.3566 13.9451C15.1649 16.1951 13.8399 17.3118 11.3982 17.3118H11.0649C10.8566 17.3118 10.6566 17.4118 10.5316 17.5784L9.53159 18.9118C9.08992 19.5035 8.37324 19.5035 7.93157 18.9118L6.93156 17.5784C6.82323 17.4368 6.58158 17.3118 6.39824 17.3118H6.06492C3.40658 17.3118 2.07324 16.6535 2.07324 13.3201V9.98679C2.07324 7.54512 3.19825 6.22012 5.43992 6.02846C5.63992 6.00346 5.84825 5.99512 6.06492 5.99512H11.3982C14.0566 5.99512 15.3899 7.32846 15.3899 9.98679Z" stroke="#010101" stroke-width="1.5" stroke-miterlimit="10" stroke-linecap="round" stroke-linejoin="round"/>
<path d="M18.7233 6.65378V9.98712C18.7233 12.4371 17.5983 13.7538 15.3566 13.9454C15.3816 13.7454 15.3899 13.5371 15.3899 13.3204V9.98712C15.3899 7.32878 14.0566 5.99544 11.3983 5.99544H6.06494C5.84827 5.99544 5.63994 6.00378 5.43994 6.02878C5.63161 3.78712 6.95661 2.66211 9.39827 2.66211H14.7316C17.3899 2.66211 18.7233 3.99545 18.7233 6.65378Z" stroke="#010101" stroke-width="1.5" stroke-miterlimit="10" stroke-linecap="round" stroke-linejoin="round"/>
<path d="M11.6532 12.0368H11.6607" stroke="#010101" stroke-width="2" stroke-linecap="round" stroke-linejoin="round"/>
<path d="M8.73616 12.0368H8.74366" stroke="#010101" stroke-width="2" stroke-linecap="round" stroke-linejoin="round"/>
<path d="M5.81966 12.0368H5.82716" stroke="#010101" stroke-width="2" stroke-linecap="round" stroke-linejoin="round"/>
</svg>
