<svg width="20" height="20" viewBox="0 0 20 20" fill="none" xmlns="http://www.w3.org/2000/svg">
<path d="M7.50033 18.3332H12.5003C16.667 18.3332 18.3337 16.6665 18.3337 12.4998V7.49984C18.3337 3.33317 16.667 1.6665 12.5003 1.6665H7.50033C3.33366 1.6665 1.66699 3.33317 1.66699 7.49984V12.4998C1.66699 16.6665 3.33366 18.3332 7.50033 18.3332Z" stroke="url(#paint0_linear_893_1348)" stroke-width="1.5" stroke-linecap="round" stroke-linejoin="round"/>
<path d="M7.49967 8.33333C8.42015 8.33333 9.16634 7.58714 9.16634 6.66667C9.16634 5.74619 8.42015 5 7.49967 5C6.5792 5 5.83301 5.74619 5.83301 6.66667C5.83301 7.58714 6.5792 8.33333 7.49967 8.33333Z" stroke="url(#paint1_linear_893_1348)" stroke-width="1.5" stroke-linecap="round" stroke-linejoin="round"/>
<path d="M2.22461 15.7918L6.33294 13.0335C6.99128 12.5918 7.94128 12.6418 8.53294 13.1501L8.80794 13.3918C9.45794 13.9501 10.5079 13.9501 11.1579 13.3918L14.6246 10.4168C15.2746 9.85846 16.3246 9.85846 16.9746 10.4168L18.3329 11.5835" stroke="url(#paint2_linear_893_1348)" stroke-width="1.5" stroke-linecap="round" stroke-linejoin="round"/>
<defs>
<linearGradient id="paint0_linear_893_1348" x1="1.66699" y1="9.83645" x2="18.3337" y2="9.83645" gradientUnits="userSpaceOnUse">
<stop offset="0.140625" stop-color="#0EB0D1"/>
<stop offset="0.791667" stop-color="#1FC995"/>
</linearGradient>
<linearGradient id="paint1_linear_893_1348" x1="5.83301" y1="6.63399" x2="9.16634" y2="6.63399" gradientUnits="userSpaceOnUse">
<stop offset="0.140625" stop-color="#0EB0D1"/>
<stop offset="0.791667" stop-color="#1FC995"/>
</linearGradient>
<linearGradient id="paint2_linear_893_1348" x1="2.22461" y1="12.8381" x2="18.3329" y2="12.8381" gradientUnits="userSpaceOnUse">
<stop offset="0.140625" stop-color="#0EB0D1"/>
<stop offset="0.791667" stop-color="#1FC995"/>
</linearGradient>
</defs>
</svg>
