<svg width="20" height="20" viewBox="0 0 20 20" fill="none" xmlns="http://www.w3.org/2000/svg">
<g clip-path="url(#clip0_2261_80816)">
<path d="M3.264 8.57921C3.20042 8.644 3.12456 8.69547 3.04085 8.73061C2.95715 8.76574 2.86728 8.78384 2.7765 8.78384C2.68572 8.78384 2.59585 8.76574 2.51215 8.73061C2.42844 8.69547 2.35258 8.644 2.289 8.57921C2.15959 8.44755 2.08707 8.27032 2.08707 8.0857C2.08707 7.90109 2.15959 7.72387 2.289 7.59221L8.32 1.50021C9.68 0.444205 11.048 -0.062795 12.41 0.00620503C14.126 0.094205 15.462 0.748205 16.596 1.82121C17.752 2.91521 18.5 4.4762 18.5 6.36821C18.5 7.82021 18.078 9.09821 17.187 10.2322L8.684 18.9922C7.824 19.6972 6.868 20.0382 5.844 19.9972C4.544 19.9432 3.577 19.5232 2.858 18.8122C2.016 17.9812 1.5 16.9602 1.5 15.5872C1.5 14.4952 1.877 13.4872 2.655 12.5412L10.139 4.90021C10.739 4.26021 11.326 3.88021 11.926 3.78821C12.3265 3.72513 12.7363 3.76095 13.1197 3.89254C13.5032 4.02414 13.8487 4.24751 14.126 4.54321C14.658 5.10621 14.886 5.8082 14.806 6.6072C14.751 7.1522 14.528 7.65421 14.118 8.13521L7.238 15.1832C7.17483 15.2482 7.09935 15.3001 7.01596 15.3356C6.93256 15.3712 6.84292 15.3898 6.75226 15.3903C6.6616 15.3909 6.57173 15.3734 6.4879 15.3389C6.40408 15.3043 6.32796 15.2535 6.264 15.1892C6.13378 15.0583 6.06019 14.8815 6.05906 14.6969C6.05794 14.5123 6.12938 14.3347 6.258 14.2022L13.105 7.19021C13.305 6.9552 13.41 6.7182 13.435 6.46621C13.475 6.06621 13.379 5.7712 13.13 5.5082C13.0042 5.37351 12.8471 5.27199 12.6727 5.21267C12.4982 5.15335 12.3118 5.13808 12.13 5.16821C11.887 5.20521 11.547 5.42621 11.128 5.87221L3.675 13.4792C3.138 14.1342 2.878 14.8292 2.878 15.5882C2.878 16.5422 3.223 17.2252 3.82 17.8142C4.295 18.2842 4.94 18.5642 5.9 18.6042C6.58 18.6312 7.21 18.4062 7.758 17.9622L16.155 9.31221C16.8 8.48521 17.122 7.51221 17.122 6.3692C17.122 4.88721 16.545 3.6852 15.654 2.84121C14.744 1.97921 13.704 1.47121 12.341 1.40121C11.333 1.34921 10.276 1.7412 9.224 2.5472L3.264 8.57921Z" fill="url(#paint0_linear_2261_80816)"/>
</g>
<defs>
<linearGradient id="paint0_linear_2261_80816" x1="1.5" y1="9.80418" x2="18.5" y2="9.80418" gradientUnits="userSpaceOnUse">
<stop offset="0.140625" stop-color="#0EB0D1"/>
<stop offset="0.791667" stop-color="#1FC995"/>
</linearGradient>
<clipPath id="clip0_2261_80816">
<rect width="20" height="20" fill="white"/>
</clipPath>
</defs>
</svg>
