<svg width="20" height="20" viewBox="0 0 20 20" fill="none" xmlns="http://www.w3.org/2000/svg">
<g id="icon/trash">
<g id="vuesax/linear/trash">
<g id="trash">
<path id="Vector" d="M17.5 4.98307C14.725 4.70807 11.9333 4.56641 9.15 4.56641C7.5 4.56641 5.85 4.64974 4.2 4.81641L2.5 4.98307" stroke="#010101" stroke-width="1.5" stroke-linecap="round" stroke-linejoin="round"/>
<path id="Vector_2" d="M7.08203 4.14102L7.26536 3.04935C7.3987 2.25768 7.4987 1.66602 8.90703 1.66602H11.0904C12.4987 1.66602 12.607 2.29102 12.732 3.05768L12.9154 4.14102" stroke="#010101" stroke-width="1.5" stroke-linecap="round" stroke-linejoin="round"/>
<path id="Vector_3" d="M15.7096 7.61719L15.168 16.0089C15.0763 17.3172 15.0013 18.3339 12.6763 18.3339H7.3263C5.0013 18.3339 4.9263 17.3172 4.83464 16.0089L4.29297 7.61719" stroke="#010101" stroke-width="1.5" stroke-linecap="round" stroke-linejoin="round"/>
<path id="Vector_4" d="M8.60938 13.75H11.3844" stroke="#010101" stroke-width="1.5" stroke-linecap="round" stroke-linejoin="round"/>
<path id="Vector_5" d="M7.91797 10.416H12.0846" stroke="#010101" stroke-width="1.5" stroke-linecap="round" stroke-linejoin="round"/>
</g>
</g>
</g>
</svg>
