<svg width="18" height="16" viewBox="0 0 18 16" fill="none" xmlns="http://www.w3.org/2000/svg">
<path fill-rule="evenodd" clip-rule="evenodd" d="M5.24614 0.5H12.0913C13.865 0.5 14.51 0.680556 15.1589 1.0283C15.798 1.3708 16.2996 1.8734 16.6415 2.51382C16.9885 3.16404 17.1687 3.8103 17.1687 5.58756V10.4124C17.1687 12.1897 16.9885 12.836 16.6415 13.4862C16.2996 14.1266 15.798 14.6292 15.1589 14.9717C14.51 15.3194 13.865 15.5 12.0913 15.5H5.24614C3.47242 15.5 2.82744 15.3194 2.17852 14.9717C1.53937 14.6292 1.03777 14.1266 0.695947 13.4862C0.348898 12.836 0.168701 12.1897 0.168701 10.4124V5.58756C0.168701 3.8103 0.348898 3.16404 0.695947 2.51382C1.03777 1.8734 1.53937 1.3708 2.17852 1.0283C2.82744 0.680556 3.47242 0.5 5.24614 0.5ZM1.6687 10.4124V5.58756C1.6687 3.98996 1.82451 3.5912 1.9981 3.26007L6.46171 7.72368C6.74127 8.00326 6.98245 8.24445 7.19733 8.42687C7.42412 8.61941 7.67048 8.79012 7.97339 8.88854C8.42528 9.03537 8.91207 9.03537 9.36396 8.88854C9.66687 8.79012 9.91323 8.61941 10.14 8.42688C10.3549 8.24446 10.5961 8.00327 10.8756 7.72369L15.3393 3.26005C15.5129 3.59119 15.6687 3.98993 15.6687 5.58756V10.4124C15.6687 12.0747 15.5 12.4391 15.3182 12.7799C15.1158 13.1591 14.8279 13.4473 14.4504 13.6496C14.1116 13.8311 13.7494 14 12.0913 14H5.24614C3.58804 14 3.22582 13.8311 2.88701 13.6496C2.50946 13.4473 2.22165 13.1591 2.01925 12.7799C1.83737 12.4391 1.6687 12.0747 1.6687 10.4124ZM12.0913 2H5.24614C3.91999 2 3.42279 2.10802 3.10352 2.24417L7.50195 6.6426C7.80771 6.94836 8.00555 7.14538 8.16809 7.28336C8.32394 7.41566 8.39733 7.4491 8.43691 7.46196C8.58755 7.5109 8.74981 7.5109 8.90044 7.46196C8.94002 7.4491 9.01342 7.41566 9.16926 7.28336C9.3318 7.14538 9.52964 6.94836 9.8354 6.6426L14.2339 2.24416C13.9146 2.10802 13.4174 2 12.0913 2Z" fill="#99A2AD"/>
</svg>
