<svg width="18" height="18" viewBox="0 0 18 18" fill="none" xmlns="http://www.w3.org/2000/svg">
<path d="M6.44864 1.70092L7.14893 2.53333C8.5211 4.1608 8.37731 6.58683 6.84959 8.11475L6.55257 8.41141C6.77819 8.79045 7.18588 9.28934 7.7829 9.88644C8.31288 10.4165 8.76612 10.7978 9.12667 11.0349L9.2575 11.1171L9.55456 10.82C11.0811 9.29322 13.5053 9.14799 15.1353 10.5185L15.968 11.22C17.4278 12.4486 17.5696 14.6392 16.3135 16.1141C15.7122 16.8098 14.883 17.2672 14.0233 17.4028L13.5172 17.4636C10.5125 17.7552 7.48026 16.3035 4.42324 13.2461C1.3678 10.1902 -0.0861174 7.15704 0.197677 4.22075L0.258195 3.70583C0.292192 3.47735 0.345458 3.25617 0.41938 3.03769C0.641902 2.38471 1.0351 1.80256 1.55795 1.35193L1.72538 1.21712C3.18731 0.110228 5.26525 0.293286 6.44864 1.70092ZM2.53724 2.48815C2.21658 2.76451 1.97553 3.12149 1.8392 3.52153C1.78036 3.69546 1.74235 3.87576 1.72438 4.07299C1.38113 6.62109 2.62268 9.32379 5.48397 12.1855C8.34513 15.047 11.0466 16.2881 13.6077 15.9433C14.2168 15.8852 14.7801 15.5944 15.1787 15.1332C15.8972 14.2894 15.8147 13.0515 15.0021 12.3676L14.1689 11.6656L14.0262 11.5542C13.0061 10.8152 11.5553 10.9404 10.6153 11.8806L10.0181 12.4778L9.931 12.5545C9.6878 12.7423 9.3625 12.795 9.06866 12.6873C8.42074 12.4491 7.6439 11.8689 6.72217 10.947C5.79953 10.0243 5.21978 9.24779 4.98289 8.60018C4.86162 8.27021 4.94294 7.89983 5.19163 7.65066L5.78957 7.05345L5.9183 6.91577C6.78053 5.92907 6.82485 4.47599 6.00215 3.50022L5.30081 2.66657L5.18844 2.5443C4.4883 1.8472 3.33609 1.80888 2.53724 2.48815Z" fill="#99A2AD"/>
</svg>
