<svg width="20" height="20" viewBox="0 0 20 20" fill="none" xmlns="http://www.w3.org/2000/svg">
<path fill-rule="evenodd" clip-rule="evenodd" d="M9.15717 2.42064C9.38748 2.21035 9.6881 2.09375 10 2.09375C10.3119 2.09375 10.6125 2.21035 10.8428 2.42064L10.8438 2.42148L17.0922 8.09976L17.101 8.10791C17.2245 8.22456 17.3234 8.36474 17.392 8.52021C17.4605 8.67566 17.4972 8.84326 17.4999 9.01313L17.5 9.02324V16.2498C17.5 16.5813 17.3683 16.8993 17.1339 17.1337C16.8995 17.3681 16.5815 17.4998 16.25 17.4998H12.5C12.1685 17.4998 11.8505 17.3681 11.6161 17.1337C11.3817 16.8993 11.25 16.5813 11.25 16.2498V12.4998H8.75V16.2498C8.75 16.5813 8.6183 16.8993 8.38388 17.1337C8.14946 17.3681 7.83152 17.4998 7.5 17.4998H3.75C3.41848 17.4998 3.10054 17.3681 2.86612 17.1337C2.6317 16.8993 2.5 16.5813 2.5 16.2498V9.02324L2.50008 9.01313C2.50283 8.84326 2.53954 8.67567 2.60805 8.52021C2.67656 8.36474 2.77548 8.22456 2.89899 8.10791L2.90779 8.09976L9.15625 2.42148L9.15717 2.42064ZM3.75592 9.01806L9.99846 3.34516L10 3.34375L10.0015 3.34516L16.2441 9.01806C16.2457 9.0199 16.2471 9.022 16.2481 9.02428C16.2491 9.02665 16.2498 9.02917 16.25 9.03173V16.2498H12.5V12.4998C12.5 12.1683 12.3683 11.8503 12.1339 11.6159C11.8995 11.3815 11.5815 11.2498 11.25 11.2498H8.75C8.41848 11.2498 8.10054 11.3815 7.86612 11.6159C7.6317 11.8503 7.5 12.1683 7.5 12.4998V16.2498H3.75V9.03174C3.75022 9.02917 3.75086 9.02665 3.75191 9.02428C3.75291 9.022 3.75427 9.0199 3.75592 9.01806Z" fill="#181818"/>
</svg>
