<svg width="24" height="24" viewBox="0 0 24 24" fill="none" xmlns="http://www.w3.org/2000/svg">
<path d="M15.5799 11.9999C15.5799 13.9799 13.9799 15.5799 11.9999 15.5799C10.0199 15.5799 8.41992 13.9799 8.41992 11.9999C8.41992 10.0199 10.0199 8.41992 11.9999 8.41992C13.9799 8.41992 15.5799 10.0199 15.5799 11.9999Z" stroke="url(#paint0_linear_756_44496)" stroke-width="1.5" stroke-linecap="round" stroke-linejoin="round"/>
<path d="M11.9998 20.2697C15.5298 20.2697 18.8198 18.1897 21.1098 14.5897C22.0098 13.1797 22.0098 10.8097 21.1098 9.39973C18.8198 5.79973 15.5298 3.71973 11.9998 3.71973C8.46984 3.71973 5.17984 5.79973 2.88984 9.39973C1.98984 10.8097 1.98984 13.1797 2.88984 14.5897C5.17984 18.1897 8.46984 20.2697 11.9998 20.2697Z" stroke="url(#paint1_linear_756_44496)" stroke-width="1.5" stroke-linecap="round" stroke-linejoin="round"/>
<defs>
<linearGradient id="paint0_linear_756_44496" x1="8.41992" y1="11.9297" x2="15.5799" y2="11.9297" gradientUnits="userSpaceOnUse">
<stop offset="0.140625" stop-color="#0EB0D1"/>
<stop offset="0.791667" stop-color="#1FC995"/>
</linearGradient>
<linearGradient id="paint1_linear_756_44496" x1="2.21484" y1="11.8325" x2="21.7848" y2="11.8325" gradientUnits="userSpaceOnUse">
<stop offset="0.140625" stop-color="#0EB0D1"/>
<stop offset="0.791667" stop-color="#1FC995"/>
</linearGradient>
</defs>
</svg>
