<svg width="17" height="18" viewBox="0 0 17 18" fill="none" xmlns="http://www.w3.org/2000/svg">
<path fill-rule="evenodd" clip-rule="evenodd" d="M9.625 5.875C8.58947 5.875 7.75 6.71447 7.75 7.75C7.75 8.78553 8.58947 9.625 9.625 9.625C10.6605 9.625 11.5 8.78553 11.5 7.75C11.5 6.71447 10.6605 5.875 9.625 5.875ZM6.5 7.75C6.5 6.02411 7.89911 4.625 9.625 4.625C11.3509 4.625 12.75 6.02411 12.75 7.75C12.75 9.47589 11.3509 10.875 9.625 10.875C7.89911 10.875 6.5 9.47589 6.5 7.75Z" fill="#181818"/>
<path fill-rule="evenodd" clip-rule="evenodd" d="M0.875 7.4375C0.875 7.09232 1.15482 6.8125 1.5 6.8125H3.375C3.72018 6.8125 4 7.09232 4 7.4375C4 7.78268 3.72018 8.0625 3.375 8.0625H1.5C1.15482 8.0625 0.875 7.78268 0.875 7.4375Z" fill="#181818"/>
<path fill-rule="evenodd" clip-rule="evenodd" d="M0.875 4.3125C0.875 3.96732 1.15482 3.6875 1.5 3.6875H3.375C3.72018 3.6875 4 3.96732 4 4.3125C4 4.65768 3.72018 4.9375 3.375 4.9375H1.5C1.15482 4.9375 0.875 4.65768 0.875 4.3125Z" fill="#181818"/>
<path fill-rule="evenodd" clip-rule="evenodd" d="M0.875 10.5625C0.875 10.2173 1.15482 9.9375 1.5 9.9375H3.375C3.72018 9.9375 4 10.2173 4 10.5625C4 10.9077 3.72018 11.1875 3.375 11.1875H1.5C1.15482 11.1875 0.875 10.9077 0.875 10.5625Z" fill="#181818"/>
<path fill-rule="evenodd" clip-rule="evenodd" d="M0.875 13.6875C0.875 13.3423 1.15482 13.0625 1.5 13.0625H3.375C3.72018 13.0625 4 13.3423 4 13.6875C4 14.0327 3.72018 14.3125 3.375 14.3125H1.5C1.15482 14.3125 0.875 14.0327 0.875 13.6875Z" fill="#181818"/>
<path fill-rule="evenodd" clip-rule="evenodd" d="M9.625 10.875C8.99432 10.875 8.37233 11.0218 7.80823 11.3039C7.24413 11.5859 6.75345 11.9955 6.37504 12.5C6.16793 12.7761 5.77618 12.8321 5.50004 12.625C5.22389 12.4179 5.16793 12.0261 5.37504 11.75C5.86988 11.0902 6.51154 10.5547 7.24921 10.1859C7.98688 9.81702 8.80026 9.625 9.625 9.625C10.4497 9.625 11.2632 9.81702 12.0009 10.1859C12.7385 10.5547 13.3802 11.0902 13.875 11.75C14.0821 12.0261 14.0262 12.4179 13.75 12.625C13.4739 12.8321 13.0821 12.7761 12.875 12.5C12.4966 11.9955 12.0059 11.5859 11.4418 11.3039C10.8777 11.0218 10.2557 10.875 9.625 10.875Z" fill="#181818"/>
<path fill-rule="evenodd" clip-rule="evenodd" d="M15.25 0.875C15.9404 0.875 16.5 1.43464 16.5 2.125V15.875C16.5 16.5654 15.9404 17.125 15.25 17.125H4C3.30964 17.125 2.75 16.5654 2.75 15.875V2.125C2.75 1.43464 3.30964 0.875 4 0.875H15.25ZM15.25 15.875V2.125H4V15.875H15.25Z" fill="#181818"/>
</svg>
