<svg width="16" height="16" viewBox="0 0 16 16" fill="none" xmlns="http://www.w3.org/2000/svg">
<path fill-rule="evenodd" clip-rule="evenodd" d="M7.15717 0.420639C7.38748 0.210354 7.6881 0.09375 8 0.09375C8.3119 0.09375 8.61252 0.210355 8.84283 0.420638L8.84375 0.421478L15.0922 6.09976L15.101 6.10791C15.2245 6.22456 15.3234 6.36474 15.392 6.52021C15.4605 6.67566 15.4972 6.84326 15.4999 7.01313L15.5 7.02324V14.2498C15.5 14.5813 15.3683 14.8993 15.1339 15.1337C14.8995 15.3681 14.5815 15.4998 14.25 15.4998H10.5C10.1685 15.4998 9.85054 15.3681 9.61612 15.1337C9.38169 14.8993 9.25 14.5813 9.25 14.2498V10.4998H6.75V14.2498C6.75 14.5813 6.6183 14.8993 6.38388 15.1337C6.14946 15.3681 5.83152 15.4998 5.5 15.4998H1.75C1.41848 15.4998 1.10054 15.3681 0.866117 15.1337C0.631696 14.8993 0.5 14.5813 0.5 14.2498V7.02324L0.500082 7.01313C0.50283 6.84326 0.539539 6.67567 0.608047 6.52021C0.676556 6.36474 0.775478 6.22456 0.89899 6.10791L0.907791 6.09976L7.15625 0.421478L7.15717 0.420639ZM1.75592 7.01806L7.99846 1.34516L8 1.34375L8.00154 1.34516L14.2441 7.01806C14.2457 7.0199 14.2471 7.022 14.2481 7.02428C14.2491 7.02665 14.2498 7.02917 14.25 7.03173V14.2498H10.5V10.4998C10.5 10.1683 10.3683 9.85034 10.1339 9.61592C9.89946 9.3815 9.58152 9.2498 9.25 9.2498H6.75C6.41848 9.2498 6.10054 9.3815 5.86612 9.61592C5.6317 9.85034 5.5 10.1683 5.5 10.4998V14.2498H1.75V7.03174C1.75022 7.02917 1.75086 7.02665 1.75191 7.02428C1.75291 7.022 1.75427 7.0199 1.75592 7.01806Z" fill="#181818"/>
</svg>
