<svg width="20" height="20" viewBox="0 0 20 20" fill="none" xmlns="http://www.w3.org/2000/svg">
<path d="M6.23242 15.292L8.81576 17.292C9.14909 17.6254 9.89909 17.792 10.3991 17.792H13.5658C14.5658 17.792 15.6491 17.042 15.8991 16.042L17.8991 9.95871C18.3158 8.79205 17.5658 7.79205 16.3158 7.79205H12.9824C12.4824 7.79205 12.0658 7.37538 12.1491 6.79205L12.5658 4.12538C12.7324 3.37538 12.2324 2.54205 11.4824 2.29205C10.8158 2.04205 9.98242 2.37538 9.64909 2.87538L6.23242 7.95871" fill="white"/>
<path d="M6.23242 15.292L8.81576 17.292C9.14909 17.6254 9.89909 17.792 10.3991 17.792H13.5658C14.5658 17.792 15.6491 17.042 15.8991 16.042L17.8991 9.95871C18.3158 8.79205 17.5658 7.79205 16.3158 7.79205H12.9824C12.4824 7.79205 12.0658 7.37538 12.1491 6.79205L12.5658 4.12538C12.7324 3.37538 12.2324 2.54205 11.4824 2.29205C10.8158 2.04205 9.98242 2.37538 9.64909 2.87538L6.23242 7.95871" stroke="url(#paint0_linear_1063_88156)" stroke-width="1.5" stroke-miterlimit="10"/>
<path d="M1.98242 15.292V7.12533C1.98242 5.95866 2.48242 5.54199 3.64909 5.54199H4.48242C5.64909 5.54199 6.14909 5.95866 6.14909 7.12533V15.292C6.14909 16.4587 5.64909 16.8753 4.48242 16.8753H3.64909C2.48242 16.8753 1.98242 16.4587 1.98242 15.292Z" stroke="url(#paint1_linear_1063_88156)" stroke-width="1.5" stroke-linecap="round" stroke-linejoin="round"/>
<defs>
<linearGradient id="paint0_linear_1063_88156" x1="6.23242" y1="9.84675" x2="18.0148" y2="9.84675" gradientUnits="userSpaceOnUse">
<stop offset="0.140625" stop-color="#0EB0D1"/>
<stop offset="0.791667" stop-color="#1FC995"/>
</linearGradient>
<linearGradient id="paint1_linear_1063_88156" x1="1.98242" y1="11.0976" x2="6.14909" y2="11.0976" gradientUnits="userSpaceOnUse">
<stop offset="0.140625" stop-color="#0EB0D1"/>
<stop offset="0.791667" stop-color="#1FC995"/>
</linearGradient>
</defs>
</svg>
