<svg width="24" height="24" viewBox="0 0 24 24" fill="none" xmlns="http://www.w3.org/2000/svg">
<path d="M5 10C3.9 10 3 10.9 3 12C3 13.1 3.9 14 5 14C6.1 14 7 13.1 7 12C7 10.9 6.1 10 5 10Z" stroke="url(#paint0_linear_1063_88080)" stroke-width="1.5"/>
<path d="M19 10C17.9 10 17 10.9 17 12C17 13.1 17.9 14 19 14C20.1 14 21 13.1 21 12C21 10.9 20.1 10 19 10Z" stroke="url(#paint1_linear_1063_88080)" stroke-width="1.5"/>
<path d="M12 10C10.9 10 10 10.9 10 12C10 13.1 10.9 14 12 14C13.1 14 14 13.1 14 12C14 10.9 13.1 10 12 10Z" stroke="url(#paint2_linear_1063_88080)" stroke-width="1.5"/>
<defs>
<linearGradient id="paint0_linear_1063_88080" x1="3" y1="11.9608" x2="7" y2="11.9608" gradientUnits="userSpaceOnUse">
<stop offset="0.140625" stop-color="#0EB0D1"/>
<stop offset="0.791667" stop-color="#1FC995"/>
</linearGradient>
<linearGradient id="paint1_linear_1063_88080" x1="17" y1="11.9608" x2="21" y2="11.9608" gradientUnits="userSpaceOnUse">
<stop offset="0.140625" stop-color="#0EB0D1"/>
<stop offset="0.791667" stop-color="#1FC995"/>
</linearGradient>
<linearGradient id="paint2_linear_1063_88080" x1="10" y1="11.9608" x2="14" y2="11.9608" gradientUnits="userSpaceOnUse">
<stop offset="0.140625" stop-color="#0EB0D1"/>
<stop offset="0.791667" stop-color="#1FC995"/>
</linearGradient>
</defs>
</svg>
