<svg width="24" height="25" viewBox="0 0 24 25" fill="none" xmlns="http://www.w3.org/2000/svg">
<path d="M12.0196 3.66016C8.7096 3.66016 6.0196 6.35016 6.0196 9.66016V12.5502C6.0196 13.1602 5.7596 14.0902 5.4496 14.6102L4.2996 16.5202C3.5896 17.7002 4.0796 19.0102 5.3796 19.4502C9.6896 20.8902 14.3396 20.8902 18.6496 19.4502C19.8596 19.0502 20.3896 17.6202 19.7296 16.5202L18.5796 14.6102C18.2796 14.0902 18.0196 13.1602 18.0196 12.5502V9.66016C18.0196 6.36016 15.3196 3.66016 12.0196 3.66016Z" stroke="url(#paint0_linear_2209_4636)" stroke-width="1.5" stroke-miterlimit="10" stroke-linecap="round"/>
<path d="M13.8699 3.94945C13.5599 3.85945 13.2399 3.78945 12.9099 3.74945C11.9499 3.62945 11.0299 3.69945 10.1699 3.94945C10.4599 3.20945 11.1799 2.68945 12.0199 2.68945C12.8599 2.68945 13.5799 3.20945 13.8699 3.94945Z" stroke="url(#paint1_linear_2209_4636)" stroke-width="1.5" stroke-miterlimit="10" stroke-linecap="round" stroke-linejoin="round"/>
<path d="M15.0195 19.8105C15.0195 21.4605 13.6695 22.8105 12.0195 22.8105C11.1995 22.8105 10.4395 22.4705 9.89953 21.9305C9.35953 21.3905 9.01953 20.6305 9.01953 19.8105" stroke="url(#paint2_linear_2209_4636)" stroke-width="1.5" stroke-miterlimit="10"/>
<defs>
<linearGradient id="paint0_linear_2209_4636" x1="3.97363" y1="11.9298" x2="20.0161" y2="11.9298" gradientUnits="userSpaceOnUse">
<stop offset="0.140625" stop-color="#0EB0D1"/>
<stop offset="0.791667" stop-color="#1FC995"/>
</linearGradient>
<linearGradient id="paint1_linear_2209_4636" x1="10.1699" y1="3.3071" x2="13.8699" y2="3.3071" gradientUnits="userSpaceOnUse">
<stop offset="0.140625" stop-color="#0EB0D1"/>
<stop offset="0.791667" stop-color="#1FC995"/>
</linearGradient>
<linearGradient id="paint2_linear_2209_4636" x1="9.01953" y1="21.2811" x2="15.0195" y2="21.2811" gradientUnits="userSpaceOnUse">
<stop offset="0.140625" stop-color="#0EB0D1"/>
<stop offset="0.791667" stop-color="#1FC995"/>
</linearGradient>
</defs>
</svg>
