<svg width="28" height="29" viewBox="0 0 28 29" fill="none" xmlns="http://www.w3.org/2000/svg">
<path d="M23.5175 10.5C23.5175 10.5 23.5063 10.5 23.5013 10.5H14.75V9.17996C16.1863 8.53871 17.0288 7.61496 17.2575 6.42621C17.7725 3.74996 14.7513 1.04371 14.405 0.743714C14.035 0.423714 13.4863 0.417464 13.11 0.731214C12.7525 1.02871 9.63378 3.71871 10.1388 6.39996C10.3663 7.60871 11.2438 8.54496 12.75 9.18996V10.5H3.97128C1.77253 10.5087 -0.0087179 12.305 3.20993e-05 14.5V16.1625C3.20993e-05 17.5962 0.590032 18.9975 1.61878 20.0037C1.66128 20.0462 1.70628 20.0862 1.75003 20.1262V26.4987C1.75003 27.6012 2.64753 28.4987 3.75003 28.4987H23.75C24.8525 28.4987 25.75 27.6012 25.75 26.4987V20.1262C25.7938 20.0862 25.8388 20.0462 25.8813 20.0037C26.91 18.9962 27.5 17.5962 27.5 16.1612V14.47C27.4913 12.2775 25.7038 10.4987 23.5163 10.4987L23.5175 10.5ZM12.105 6.03121C11.9938 5.44496 12.3288 4.61121 13.0488 3.68246C13.2813 3.38246 13.5238 3.11246 13.7363 2.89121C13.94 3.11246 14.17 3.37996 14.3913 3.67746C15.0875 4.61371 15.4075 5.45621 15.2925 6.05121C15.1863 6.59996 14.665 7.06496 13.7425 7.43621C13.0063 7.15121 12.23 6.69746 12.1038 6.03121H12.105ZM2.00003 14.4962C1.99753 13.965 2.20253 13.465 2.57628 13.0887C2.95003 12.7112 3.44878 12.5025 3.97878 12.5012H23.5125C24.605 12.5012 25.495 13.3875 25.5 14.4762V16.1637C25.5 17.0637 25.1288 17.9437 24.4825 18.5762C23.855 19.19 23.0363 19.5187 22.1838 19.5012C20.4288 19.465 19 18.0075 19.0013 16.2512C19.0013 16.2375 19 16.2237 18.9988 16.2087C18.9988 16.1887 18.9988 16.1687 18.9963 16.1487C18.9963 16.14 18.9938 16.1312 18.9925 16.1225C18.9888 16.0987 18.9863 16.0737 18.9813 16.05C18.9813 16.045 18.9788 16.04 18.9775 16.035C18.9713 16.0075 18.965 15.98 18.9563 15.9537C18.955 15.9487 18.9525 15.945 18.9513 15.94C18.9425 15.9137 18.9338 15.8875 18.9225 15.8625C18.91 15.8325 18.8963 15.8025 18.8813 15.775C18.8813 15.7725 18.8788 15.7712 18.8775 15.7687C18.8625 15.7425 18.8475 15.7162 18.8313 15.6925C18.8263 15.6862 18.8213 15.68 18.8163 15.6737C18.8025 15.6537 18.7888 15.635 18.7738 15.6162C18.7688 15.61 18.7638 15.605 18.7588 15.6C18.7425 15.5812 18.7263 15.5625 18.71 15.5462C18.7038 15.54 18.6975 15.535 18.6913 15.5287C18.6738 15.5125 18.6575 15.4962 18.6388 15.4812C18.6313 15.475 18.6238 15.47 18.6163 15.4637C18.5988 15.45 18.5813 15.4362 18.5625 15.4237C18.555 15.4187 18.5463 15.415 18.5388 15.41C18.5188 15.3975 18.5 15.385 18.48 15.3737C18.4763 15.3712 18.4713 15.37 18.4675 15.3675C18.4425 15.355 18.4188 15.3425 18.3925 15.3312C18.3875 15.3287 18.3825 15.3275 18.3775 15.3262C18.3525 15.3162 18.3263 15.3062 18.3 15.2975C18.2875 15.2937 18.275 15.2912 18.2625 15.2875C18.2438 15.2825 18.2238 15.2762 18.205 15.2725C18.1913 15.27 18.1775 15.2687 18.1638 15.2662C18.145 15.2637 18.1263 15.26 18.1063 15.2575C18.09 15.2562 18.0738 15.2562 18.0588 15.255C18.0413 15.255 18.0225 15.2525 18.005 15.2525C17.9475 15.2525 17.8925 15.2587 17.8375 15.2675C17.8263 15.27 17.815 15.27 17.8038 15.2725C17.3838 15.3587 17.06 15.7075 17.0113 16.1412C17.0113 16.1437 17.0113 16.1475 17.01 16.15C17.0075 16.1712 17.0075 16.1912 17.0063 16.2125C17.0063 16.2262 17.0038 16.2387 17.0038 16.2512C17.0038 18.0437 15.5463 19.5012 13.7538 19.5012C11.9613 19.5012 10.5038 18.0437 10.5038 16.2512C10.5038 16.2312 10.5025 16.2112 10.5013 16.1925C10.5013 16.1787 10.5013 16.1637 10.4988 16.1487C10.4975 16.1337 10.4938 16.12 10.4925 16.1062C10.49 16.0875 10.4875 16.0687 10.4838 16.05C10.4838 16.0462 10.4813 16.0425 10.4813 16.0387C10.3975 15.6537 10.0925 15.3512 9.70628 15.2712C9.64128 15.2575 9.57378 15.2512 9.50503 15.2512C9.49128 15.2512 9.47753 15.2525 9.46378 15.2537C9.44378 15.2537 9.42253 15.2537 9.40253 15.2562C9.39503 15.2562 9.38753 15.2587 9.38003 15.26C9.35378 15.2637 9.32753 15.2662 9.30253 15.2712L9.29753 15.2725C9.23378 15.2862 9.17253 15.305 9.11503 15.33H9.11253C8.90378 15.42 8.73253 15.5775 8.62503 15.775C8.61753 15.7887 8.61128 15.8025 8.60503 15.8175C8.59753 15.8325 8.59003 15.8475 8.58378 15.8625C8.57628 15.8787 8.57128 15.8962 8.56503 15.9125C8.56003 15.9262 8.55378 15.94 8.55003 15.9537C8.54253 15.9775 8.53753 16.0012 8.53128 16.0262C8.53003 16.0337 8.52753 16.0412 8.52503 16.05C8.52003 16.0737 8.51753 16.0987 8.51378 16.1225C8.51378 16.1312 8.51003 16.14 8.51003 16.1487C8.50753 16.1687 8.50753 16.1887 8.50753 16.2087C8.50753 16.2225 8.50503 16.2362 8.50503 16.25C8.50503 18.0062 7.07753 19.4637 5.32128 19.5C4.46753 19.5187 3.65003 19.19 3.02253 18.575C2.37503 17.9412 2.00503 17.0625 2.00503 16.1625V14.4962H2.00003ZM23.75 26.5H3.75003V21.2775C4.23128 21.425 4.73503 21.5012 5.24878 21.5012C5.28503 21.5012 5.32128 21.5012 5.35878 21.5012C7.05378 21.4662 8.55878 20.61 9.49628 19.3225C10.4513 20.6412 12.0013 21.5012 13.75 21.5012C15.4988 21.5012 17.05 20.6412 18.0038 19.3225C18.9413 20.6112 20.4463 21.4662 22.1413 21.5012C22.695 21.5137 23.235 21.4375 23.75 21.28V26.5012V26.5Z" fill="#181818"/>
</svg>
