<svg width="28" height="29" viewBox="0 0 28 29" fill="none" xmlns="http://www.w3.org/2000/svg">
<path d="M23.5175 10.5002C23.5175 10.5002 23.5063 10.5002 23.5013 10.5002H14.75V9.18021C16.1863 8.53896 17.0288 7.61521 17.2575 6.42646C17.7725 3.75021 14.7513 1.04396 14.405 0.743958C14.035 0.423958 13.4863 0.417708 13.11 0.731458C12.7525 1.02896 9.63378 3.71896 10.1388 6.40021C10.3663 7.60896 11.2438 8.54521 12.75 9.19021V10.5002H3.97128C1.77253 10.509 -0.0087179 12.3052 3.20993e-05 14.5002V16.1627C3.20993e-05 17.5965 0.590032 18.9977 1.61878 20.004C1.66128 20.0465 1.70628 20.0865 1.75003 20.1265V26.499C1.75003 27.6015 2.64753 28.499 3.75003 28.499H23.75C24.8525 28.499 25.75 27.6015 25.75 26.499V20.1265C25.7938 20.0865 25.8388 20.0465 25.8813 20.004C26.91 18.9965 27.5 17.5965 27.5 16.1615V14.4702C27.4913 12.2777 25.7038 10.499 23.5163 10.499L23.5175 10.5002ZM12.105 6.03146C11.9938 5.44521 12.3288 4.61146 13.0488 3.68271C13.2813 3.38271 13.5238 3.11271 13.7363 2.89146C13.94 3.11271 14.17 3.38021 14.3913 3.67771C15.0875 4.61396 15.4075 5.45646 15.2925 6.05146C15.1863 6.60021 14.665 7.06521 13.7425 7.43646C13.0063 7.15146 12.23 6.69771 12.1038 6.03146H12.105ZM2.00003 14.4965C1.99753 13.9652 2.20253 13.4652 2.57628 13.089C2.95003 12.7115 3.44878 12.5027 3.97878 12.5015H23.5125C24.605 12.5015 25.495 13.3877 25.5 14.4765V16.164C25.5 17.064 25.1288 17.944 24.4825 18.5765C23.855 19.1902 23.0363 19.519 22.1838 19.5015C20.4288 19.4652 19 18.0077 19.0013 16.2515C19.0013 16.2377 19 16.224 18.9988 16.209C18.9988 16.189 18.9988 16.169 18.9963 16.149C18.9963 16.1402 18.9938 16.1315 18.9925 16.1227C18.9888 16.099 18.9863 16.074 18.9813 16.0502C18.9813 16.0452 18.9788 16.0402 18.9775 16.0352C18.9713 16.0077 18.965 15.9802 18.9563 15.954C18.955 15.949 18.9525 15.9452 18.9513 15.9402C18.9425 15.914 18.9338 15.8877 18.9225 15.8627C18.91 15.8327 18.8963 15.8027 18.8813 15.7752C18.8813 15.7727 18.8788 15.7715 18.8775 15.769C18.8625 15.7427 18.8475 15.7165 18.8313 15.6927C18.8263 15.6865 18.8213 15.6802 18.8163 15.674C18.8025 15.654 18.7888 15.6352 18.7738 15.6165C18.7688 15.6102 18.7638 15.6052 18.7588 15.6002C18.7425 15.5815 18.7263 15.5627 18.71 15.5465C18.7038 15.5402 18.6975 15.5352 18.6913 15.529C18.6738 15.5127 18.6575 15.4965 18.6388 15.4815C18.6313 15.4752 18.6238 15.4702 18.6163 15.464C18.5988 15.4502 18.5813 15.4365 18.5625 15.424C18.555 15.419 18.5463 15.4152 18.5388 15.4102C18.5188 15.3977 18.5 15.3852 18.48 15.374C18.4763 15.3715 18.4713 15.3702 18.4675 15.3677C18.4425 15.3552 18.4188 15.3427 18.3925 15.3315C18.3875 15.329 18.3825 15.3277 18.3775 15.3265C18.3525 15.3165 18.3263 15.3065 18.3 15.2977C18.2875 15.294 18.275 15.2915 18.2625 15.2877C18.2438 15.2827 18.2238 15.2765 18.205 15.2727C18.1913 15.2702 18.1775 15.269 18.1638 15.2665C18.145 15.264 18.1263 15.2602 18.1063 15.2577C18.09 15.2565 18.0738 15.2565 18.0588 15.2552C18.0413 15.2552 18.0225 15.2527 18.005 15.2527C17.9475 15.2527 17.8925 15.259 17.8375 15.2677C17.8263 15.2702 17.815 15.2702 17.8038 15.2727C17.3838 15.359 17.06 15.7077 17.0113 16.1415C17.0113 16.144 17.0113 16.1477 17.01 16.1502C17.0075 16.1715 17.0075 16.1915 17.0063 16.2127C17.0063 16.2265 17.0038 16.239 17.0038 16.2515C17.0038 18.044 15.5463 19.5015 13.7538 19.5015C11.9613 19.5015 10.5038 18.044 10.5038 16.2515C10.5038 16.2315 10.5025 16.2115 10.5013 16.1927C10.5013 16.179 10.5013 16.164 10.4988 16.149C10.4975 16.134 10.4938 16.1202 10.4925 16.1065C10.49 16.0877 10.4875 16.069 10.4838 16.0502C10.4838 16.0465 10.4813 16.0427 10.4813 16.039C10.3975 15.654 10.0925 15.3515 9.70628 15.2715C9.64128 15.2577 9.57378 15.2515 9.50503 15.2515C9.49128 15.2515 9.47753 15.2527 9.46378 15.254C9.44378 15.254 9.42253 15.254 9.40253 15.2565C9.39503 15.2565 9.38753 15.259 9.38003 15.2602C9.35378 15.264 9.32753 15.2665 9.30253 15.2715L9.29753 15.2727C9.23378 15.2865 9.17253 15.3052 9.11503 15.3302H9.11253C8.90378 15.4202 8.73253 15.5777 8.62503 15.7752C8.61753 15.789 8.61128 15.8027 8.60503 15.8177C8.59753 15.8327 8.59003 15.8477 8.58378 15.8627C8.57628 15.879 8.57128 15.8965 8.56503 15.9127C8.56003 15.9265 8.55378 15.9402 8.55003 15.954C8.54253 15.9777 8.53753 16.0015 8.53128 16.0265C8.53003 16.034 8.52753 16.0415 8.52503 16.0502C8.52003 16.074 8.51753 16.099 8.51378 16.1227C8.51378 16.1315 8.51003 16.1402 8.51003 16.149C8.50753 16.169 8.50753 16.189 8.50753 16.209C8.50753 16.2227 8.50503 16.2365 8.50503 16.2502C8.50503 18.0065 7.07753 19.464 5.32128 19.5002C4.46753 19.519 3.65003 19.1902 3.02253 18.5752C2.37503 17.9415 2.00503 17.0627 2.00503 16.1627V14.4965H2.00003ZM23.75 26.5002H3.75003V21.2777C4.23128 21.4252 4.73503 21.5015 5.24878 21.5015C5.28503 21.5015 5.32128 21.5015 5.35878 21.5015C7.05378 21.4665 8.55878 20.6102 9.49628 19.3227C10.4513 20.6415 12.0013 21.5015 13.75 21.5015C15.4988 21.5015 17.05 20.6415 18.0038 19.3227C18.9413 20.6115 20.4463 21.4665 22.1413 21.5015C22.695 21.514 23.235 21.4377 23.75 21.2802V26.5015V26.5002Z" fill="url(#paint0_linear_756_44691)"/>
<defs>
<linearGradient id="paint0_linear_756_44691" x1="1.54673e-07" y1="14.225" x2="27.5" y2="14.225" gradientUnits="userSpaceOnUse">
<stop offset="0.140625" stop-color="#0EB0D1"/>
<stop offset="0.791667" stop-color="#1FC995"/>
</linearGradient>
</defs>
</svg>
